<svg xmlns="http://www.w3.org/2000/svg" version="1.1" xmlns:xlink="http://www.w3.org/1999/xlink" xmlns:svgjs="http://svgjs.com/svgjs" width="1920" height="480" preserveAspectRatio="none" viewBox="0 0 1920 480"><g mask="url(&quot;#SvgjsMask1016&quot;)" fill="none"><rect width="1920" height="480" x="0" y="0" fill="url(#SvgjsLinearGradient1017)"></rect><path d="M1920 0L1467.99 0L1920 148.43z" fill="rgba(255, 255, 255, .1)"></path><path d="M1467.99 0L1920 148.43L1920 254.60000000000002L838.73 0z" fill="rgba(255, 255, 255, .075)"></path><path d="M838.73 0L1920 254.60000000000002L1920 325.78000000000003L462.51 0z" fill="rgba(255, 255, 255, .05)"></path><path d="M462.51 0L1920 325.78000000000003L1920 342.28000000000003L432.23 0z" fill="rgba(255, 255, 255, .025)"></path><path d="M0 480L941.62 480L0 275.22z" fill="rgba(0, 0, 0, .1)"></path><path d="M0 275.22L941.62 480L1112.39 480L0 197.93z" fill="rgba(0, 0, 0, .075)"></path><path d="M0 197.93L1112.39 480L1362.8500000000001 480L0 186.41z" fill="rgba(0, 0, 0, .05)"></path><path d="M0 186.41000000000003L1362.8500000000001 480L1415.6100000000001 480L0 183.10000000000002z" fill="rgba(0, 0, 0, .025)"></path></g><defs><mask id="SvgjsMask1016"><rect width="1920" height="480" fill="#ffffff"></rect></mask><linearGradient x1="18.75%" y1="-75%" x2="81.25%" y2="175%" gradientUnits="userSpaceOnUse" id="SvgjsLinearGradient1017"><stop stop-color="#0e2a47" offset="0"></stop><stop stop-color="#00459e" offset="1"></stop></linearGradient></defs></svg>