<svg xmlns="http://www.w3.org/2000/svg" version="1.1" xmlns:xlink="http://www.w3.org/1999/xlink" xmlns:svgjs="http://svgjs.com/svgjs" width="1920" height="481" preserveAspectRatio="none" viewBox="0 0 1920 481"><g mask="url(&quot;#SvgjsMask1014&quot;)" fill="none"><rect width="1920" height="481" x="0" y="0" fill="#0e2a47"></rect><path d="M-86.48 373.47L-86.48 373.47" stroke="#132e65" stroke-width="1.5"></path><path d="M-86.48 373.47L-49.75 493.88" stroke="#132e65" stroke-width="1.5"></path><path d="M-86.48 373.47L60.89 399.37" stroke="#132e65" stroke-width="1.5"></path><path d="M-49.75 493.88L-49.75 493.88" stroke="#132e65" stroke-width="1.5"></path><path d="M-40.28 671.24L-40.28 671.24" stroke="#132e65" stroke-width="1.5"></path><path d="M-40.28 671.24L99.2 650.57" stroke="#132e65" stroke-width="1.5"></path><path d="M-40.28 671.24L-49.75 493.88" stroke="#132e65" stroke-width="1.5"></path><path d="M-40.28 671.24L106.32 487.94" stroke="#132e65" stroke-width="1.5"></path><path d="M-40.28 671.24L60.89 399.37" stroke="#132e65" stroke-width="1.5"></path><path d="M-40.28 671.24L-86.48 373.47" stroke="#132e65" stroke-width="1.5"></path><path d="M-40.28 671.24L261.55 694.26" stroke="#132e65" stroke-width="1.5"></path><path d="M60.89 399.37L60.89 399.37" stroke="#132e65" stroke-width="1.5"></path><path d="M60.89 399.37L106.32 487.94" stroke="#132e65" stroke-width="1.5"></path><path d="M60.89 399.37L-49.75 493.88" stroke="#132e65" stroke-width="1.5"></path><path d="M106.32 487.94L106.32 487.94" stroke="#132e65" stroke-width="1.5"></path><path d="M106.32 487.94L245.86 520.69" stroke="#132e65" stroke-width="1.5"></path><path d="M99.2 650.57L99.2 650.57" stroke="#132e65" stroke-width="1.5"></path><path d="M220.71 342.35L220.71 342.35" stroke="#132e65" stroke-width="1.5"></path><path d="M220.71 342.35L366.09 398.22" stroke="#132e65" stroke-width="1.5"></path><path d="M220.71 342.35L60.89 399.37" stroke="#132e65" stroke-width="1.5"></path><path d="M245.86 520.69L245.86 520.69" stroke="#132e65" stroke-width="1.5"></path><path d="M261.55 694.26L261.55 694.26" stroke="#132e65" stroke-width="1.5"></path><path d="M261.55 694.26L386.36 648.66" stroke="#132e65" stroke-width="1.5"></path><path d="M261.55 694.26L99.2 650.57" stroke="#132e65" stroke-width="1.5"></path><path d="M261.55 694.26L245.86 520.69" stroke="#132e65" stroke-width="1.5"></path><path d="M366.09 398.22L366.09 398.22" stroke="#132e65" stroke-width="1.5"></path><path d="M366.09 398.22L408.61 561.45" stroke="#132e65" stroke-width="1.5"></path><path d="M366.09 398.22L245.86 520.69" stroke="#132e65" stroke-width="1.5"></path><path d="M408.61 561.45L408.61 561.45" stroke="#132e65" stroke-width="1.5"></path><path d="M408.61 561.45L386.36 648.66" stroke="#132e65" stroke-width="1.5"></path><path d="M408.61 561.45L532.7 489.82" stroke="#132e65" stroke-width="1.5"></path><path d="M408.61 561.45L245.86 520.69" stroke="#132e65" stroke-width="1.5"></path><path d="M386.36 648.66L386.36 648.66" stroke="#132e65" stroke-width="1.5"></path><path d="M551.91 407.11L551.91 407.11" stroke="#132e65" stroke-width="1.5"></path><path d="M551.91 407.11L532.7 489.82" stroke="#132e65" stroke-width="1.5"></path><path d="M551.91 407.11L671.33 398.63" stroke="#132e65" stroke-width="1.5"></path><path d="M532.7 489.82L532.7 489.82" stroke="#132e65" stroke-width="1.5"></path><path d="M553.74 656.07L553.74 656.07" stroke="#132e65" stroke-width="1.5"></path><path d="M553.74 656.07L710.44 689.82" stroke="#132e65" stroke-width="1.5"></path><path d="M553.74 656.07L386.36 648.66" stroke="#132e65" stroke-width="1.5"></path><path d="M553.74 656.07L532.7 489.82" stroke="#132e65" stroke-width="1.5"></path><path d="M670.48 253.85L670.48 253.85" stroke="#132e65" stroke-width="1.5"></path><path d="M670.48 253.85L671.33 398.63" stroke="#132e65" stroke-width="1.5"></path><path d="M670.48 253.85L836.07 239.68" stroke="#132e65" stroke-width="1.5"></path><path d="M670.48 253.85L551.91 407.11" stroke="#132e65" stroke-width="1.5"></path><path d="M670.48 253.85L838.26 401.51" stroke="#132e65" stroke-width="1.5"></path><path d="M670.48 253.85L532.7 489.82" stroke="#132e65" stroke-width="1.5"></path><path d="M671.33 398.63L671.33 398.63" stroke="#132e65" stroke-width="1.5"></path><path d="M671.33 398.63L703.1 546.64" stroke="#132e65" stroke-width="1.5"></path><path d="M671.33 398.63L532.7 489.82" stroke="#132e65" stroke-width="1.5"></path><path d="M703.1 546.64L703.1 546.64" stroke="#132e65" stroke-width="1.5"></path><path d="M703.1 546.64L815.13 521.28" stroke="#132e65" stroke-width="1.5"></path><path d="M703.1 546.64L710.44 689.82" stroke="#132e65" stroke-width="1.5"></path><path d="M703.1 546.64L788.9 682.9" stroke="#132e65" stroke-width="1.5"></path><path d="M710.44 689.82L710.44 689.82" stroke="#132e65" stroke-width="1.5"></path><path d="M710.44 689.82L788.9 682.9" stroke="#132e65" stroke-width="1.5"></path><path d="M836.07 239.68L836.07 239.68" stroke="#132e65" stroke-width="1.5"></path><path d="M836.07 239.68L965.92 236" stroke="#132e65" stroke-width="1.5"></path><path d="M836.07 239.68L838.26 401.51" stroke="#132e65" stroke-width="1.5"></path><path d="M836.07 239.68L951.05 382.87" stroke="#132e65" stroke-width="1.5"></path><path d="M838.26 401.51L838.26 401.51" stroke="#132e65" stroke-width="1.5"></path><path d="M838.26 401.51L951.05 382.87" stroke="#132e65" stroke-width="1.5"></path><path d="M838.26 401.51L815.13 521.28" stroke="#132e65" stroke-width="1.5"></path><path d="M838.26 401.51L671.33 398.63" stroke="#132e65" stroke-width="1.5"></path><path d="M815.13 521.28L815.13 521.28" stroke="#132e65" stroke-width="1.5"></path><path d="M815.13 521.28L978.13 515.76" stroke="#132e65" stroke-width="1.5"></path><path d="M815.13 521.28L788.9 682.9" stroke="#132e65" stroke-width="1.5"></path><path d="M815.13 521.28L671.33 398.63" stroke="#132e65" stroke-width="1.5"></path><path d="M788.9 682.9L788.9 682.9" stroke="#132e65" stroke-width="1.5"></path><path d="M965.92 236L965.92 236" stroke="#132e65" stroke-width="1.5"></path><path d="M965.92 236L1087.59 260.95" stroke="#132e65" stroke-width="1.5"></path><path d="M951.05 382.87L951.05 382.87" stroke="#132e65" stroke-width="1.5"></path><path d="M951.05 382.87L978.13 515.76" stroke="#132e65" stroke-width="1.5"></path><path d="M951.05 382.87L1092.06 346.55" stroke="#132e65" stroke-width="1.5"></path><path d="M951.05 382.87L965.92 236" stroke="#132e65" stroke-width="1.5"></path><path d="M978.13 515.76L978.13 515.76" stroke="#132e65" stroke-width="1.5"></path><path d="M978.13 515.76L991.24 673.22" stroke="#132e65" stroke-width="1.5"></path><path d="M991.24 673.22L991.24 673.22" stroke="#132e65" stroke-width="1.5"></path><path d="M991.24 673.22L1135.71 651.09" stroke="#132e65" stroke-width="1.5"></path><path d="M1157.33 54.51L1157.33 54.51" stroke="#132e65" stroke-width="1.5"></path><path d="M1157.33 54.51L1312.22 82.33" stroke="#132e65" stroke-width="1.5"></path><path d="M1157.33 54.51L1280.14 -103.75" stroke="#132e65" stroke-width="1.5"></path><path d="M1157.33 54.51L1303.67 205.06" stroke="#132e65" stroke-width="1.5"></path><path d="M1157.33 54.51L1087.59 260.95" stroke="#132e65" stroke-width="1.5"></path><path d="M1087.59 260.95L1087.59 260.95" stroke="#132e65" stroke-width="1.5"></path><path d="M1087.59 260.95L1092.06 346.55" stroke="#132e65" stroke-width="1.5"></path><path d="M1092.06 346.55L1092.06 346.55" stroke="#132e65" stroke-width="1.5"></path><path d="M1129.35 562.37L1129.35 562.37" stroke="#132e65" stroke-width="1.5"></path><path d="M1129.35 562.37L1135.71 651.09" stroke="#132e65" stroke-width="1.5"></path><path d="M1129.35 562.37L1239.16 508.03" stroke="#132e65" stroke-width="1.5"></path><path d="M1135.71 651.09L1135.71 651.09" stroke="#132e65" stroke-width="1.5"></path><path d="M1135.71 651.09L1266.4 652.45" stroke="#132e65" stroke-width="1.5"></path><path d="M1280.14 -103.75L1280.14 -103.75" stroke="#132e65" stroke-width="1.5"></path><path d="M1280.14 -103.75L1456.14 -71.33" stroke="#132e65" stroke-width="1.5"></path><path d="M1280.14 -103.75L1312.22 82.33" stroke="#132e65" stroke-width="1.5"></path><path d="M1312.22 82.33L1312.22 82.33" stroke="#132e65" stroke-width="1.5"></path><path d="M1312.22 82.33L1404.25 98.25" stroke="#132e65" stroke-width="1.5"></path><path d="M1312.22 82.33L1303.67 205.06" stroke="#132e65" stroke-width="1.5"></path><path d="M1312.22 82.33L1402.87 195.05" stroke="#132e65" stroke-width="1.5"></path><path d="M1303.67 205.06L1303.67 205.06" stroke="#132e65" stroke-width="1.5"></path><path d="M1303.67 205.06L1402.87 195.05" stroke="#132e65" stroke-width="1.5"></path><path d="M1255.65 351.46L1255.65 351.46" stroke="#132e65" stroke-width="1.5"></path><path d="M1255.65 351.46L1303.67 205.06" stroke="#132e65" stroke-width="1.5"></path><path d="M1255.65 351.46L1239.16 508.03" stroke="#132e65" stroke-width="1.5"></path><path d="M1255.65 351.46L1092.06 346.55" stroke="#132e65" stroke-width="1.5"></path><path d="M1239.16 508.03L1239.16 508.03" stroke="#132e65" stroke-width="1.5"></path><path d="M1239.16 508.03L1266.4 652.45" stroke="#132e65" stroke-width="1.5"></path><path d="M1266.4 652.45L1266.4 652.45" stroke="#132e65" stroke-width="1.5"></path><path d="M1266.4 652.45L1129.35 562.37" stroke="#132e65" stroke-width="1.5"></path><path d="M1456.14 -71.33L1456.14 -71.33" stroke="#132e65" stroke-width="1.5"></path><path d="M1456.14 -71.33L1603.38 -88.57" stroke="#132e65" stroke-width="1.5"></path><path d="M1456.14 -71.33L1538.16 62.49" stroke="#132e65" stroke-width="1.5"></path><path d="M1456.14 -71.33L1404.25 98.25" stroke="#132e65" stroke-width="1.5"></path><path d="M1404.25 98.25L1404.25 98.25" stroke="#132e65" stroke-width="1.5"></path><path d="M1404.25 98.25L1402.87 195.05" stroke="#132e65" stroke-width="1.5"></path><path d="M1404.25 98.25L1538.16 62.49" stroke="#132e65" stroke-width="1.5"></path><path d="M1404.25 98.25L1303.67 205.06" stroke="#132e65" stroke-width="1.5"></path><path d="M1402.87 195.05L1402.87 195.05" stroke="#132e65" stroke-width="1.5"></path><path d="M1424.98 337.67L1424.98 337.67" stroke="#132e65" stroke-width="1.5"></path><path d="M1424.98 337.67L1561.89 367.69" stroke="#132e65" stroke-width="1.5"></path><path d="M1424.98 337.67L1402.87 195.05" stroke="#132e65" stroke-width="1.5"></path><path d="M1424.98 337.67L1451.88 491.87" stroke="#132e65" stroke-width="1.5"></path><path d="M1424.98 337.67L1255.65 351.46" stroke="#132e65" stroke-width="1.5"></path><path d="M1451.88 491.87L1451.88 491.87" stroke="#132e65" stroke-width="1.5"></path><path d="M1451.88 491.87L1568.42 545.05" stroke="#132e65" stroke-width="1.5"></path><path d="M1451.88 491.87L1447.94 656.04" stroke="#132e65" stroke-width="1.5"></path><path d="M1451.88 491.87L1561.89 367.69" stroke="#132e65" stroke-width="1.5"></path><path d="M1447.94 656.04L1447.94 656.04" stroke="#132e65" stroke-width="1.5"></path><path d="M1447.94 656.04L1593.89 676.21" stroke="#132e65" stroke-width="1.5"></path><path d="M1447.94 656.04L1568.42 545.05" stroke="#132e65" stroke-width="1.5"></path><path d="M1447.94 656.04L1266.4 652.45" stroke="#132e65" stroke-width="1.5"></path><path d="M1447.94 656.04L1239.16 508.03" stroke="#132e65" stroke-width="1.5"></path><path d="M1447.94 656.04L1698.99 550.65" stroke="#132e65" stroke-width="1.5"></path><path d="M1603.38 -88.57L1603.38 -88.57" stroke="#132e65" stroke-width="1.5"></path><path d="M1603.38 -88.57L1762.45 -96.11" stroke="#132e65" stroke-width="1.5"></path><path d="M1603.38 -88.57L1538.16 62.49" stroke="#132e65" stroke-width="1.5"></path><path d="M1603.38 -88.57L1688.43 105.16" stroke="#132e65" stroke-width="1.5"></path><path d="M1603.38 -88.57L1854.16 -67.76" stroke="#132e65" stroke-width="1.5"></path><path d="M1538.16 62.49L1538.16 62.49" stroke="#132e65" stroke-width="1.5"></path><path d="M1538.16 62.49L1576.39 197.22" stroke="#132e65" stroke-width="1.5"></path><path d="M1538.16 62.49L1688.43 105.16" stroke="#132e65" stroke-width="1.5"></path><path d="M1576.39 197.22L1576.39 197.22" stroke="#132e65" stroke-width="1.5"></path><path d="M1576.39 197.22L1688.43 105.16" stroke="#132e65" stroke-width="1.5"></path><path d="M1576.39 197.22L1561.89 367.69" stroke="#132e65" stroke-width="1.5"></path><path d="M1576.39 197.22L1402.87 195.05" stroke="#132e65" stroke-width="1.5"></path><path d="M1561.89 367.69L1561.89 367.69" stroke="#132e65" stroke-width="1.5"></path><path d="M1561.89 367.69L1568.42 545.05" stroke="#132e65" stroke-width="1.5"></path><path d="M1561.89 367.69L1752.44 364.69" stroke="#132e65" stroke-width="1.5"></path><path d="M1561.89 367.69L1698.99 550.65" stroke="#132e65" stroke-width="1.5"></path><path d="M1568.42 545.05L1568.42 545.05" stroke="#132e65" stroke-width="1.5"></path><path d="M1593.89 676.21L1593.89 676.21" stroke="#132e65" stroke-width="1.5"></path><path d="M1593.89 676.21L1568.42 545.05" stroke="#132e65" stroke-width="1.5"></path><path d="M1762.45 -96.11L1762.45 -96.11" stroke="#132e65" stroke-width="1.5"></path><path d="M1762.45 -96.11L1854.16 -67.76" stroke="#132e65" stroke-width="1.5"></path><path d="M1688.43 105.16L1688.43 105.16" stroke="#132e65" stroke-width="1.5"></path><path d="M1688.43 105.16L1747.64 230.77" stroke="#132e65" stroke-width="1.5"></path><path d="M1688.43 105.16L1880.88 94.01" stroke="#132e65" stroke-width="1.5"></path><path d="M1747.64 230.77L1747.64 230.77" stroke="#132e65" stroke-width="1.5"></path><path d="M1747.64 230.77L1752.44 364.69" stroke="#132e65" stroke-width="1.5"></path><path d="M1747.64 230.77L1895.01 191.16" stroke="#132e65" stroke-width="1.5"></path><path d="M1747.64 230.77L1858.47 361.72" stroke="#132e65" stroke-width="1.5"></path><path d="M1747.64 230.77L1576.39 197.22" stroke="#132e65" stroke-width="1.5"></path><path d="M1747.64 230.77L1880.88 94.01" stroke="#132e65" stroke-width="1.5"></path><path d="M1752.44 364.69L1752.44 364.69" stroke="#132e65" stroke-width="1.5"></path><path d="M1752.44 364.69L1858.47 361.72" stroke="#132e65" stroke-width="1.5"></path><path d="M1752.44 364.69L1870.34 517.32" stroke="#132e65" stroke-width="1.5"></path><path d="M1752.44 364.69L1698.99 550.65" stroke="#132e65" stroke-width="1.5"></path><path d="M1752.44 364.69L1895.01 191.16" stroke="#132e65" stroke-width="1.5"></path><path d="M1698.99 550.65L1698.99 550.65" stroke="#132e65" stroke-width="1.5"></path><path d="M1698.99 550.65L1733.22 665.78" stroke="#132e65" stroke-width="1.5"></path><path d="M1698.99 550.65L1568.42 545.05" stroke="#132e65" stroke-width="1.5"></path><path d="M1698.99 550.65L1593.89 676.21" stroke="#132e65" stroke-width="1.5"></path><path d="M1698.99 550.65L1870.34 517.32" stroke="#132e65" stroke-width="1.5"></path><path d="M1733.22 665.78L1733.22 665.78" stroke="#132e65" stroke-width="1.5"></path><path d="M1733.22 665.78L1868.43 678.93" stroke="#132e65" stroke-width="1.5"></path><path d="M1733.22 665.78L1593.89 676.21" stroke="#132e65" stroke-width="1.5"></path><path d="M1733.22 665.78L1870.34 517.32" stroke="#132e65" stroke-width="1.5"></path><path d="M1733.22 665.78L1568.42 545.05" stroke="#132e65" stroke-width="1.5"></path><path d="M1733.22 665.78L1447.94 656.04" stroke="#132e65" stroke-width="1.5"></path><path d="M1854.16 -67.76L1854.16 -67.76" stroke="#132e65" stroke-width="1.5"></path><path d="M1854.16 -67.76L2000.76 -58.22" stroke="#132e65" stroke-width="1.5"></path><path d="M1854.16 -67.76L1880.88 94.01" stroke="#132e65" stroke-width="1.5"></path><path d="M1880.88 94.01L1880.88 94.01" stroke="#132e65" stroke-width="1.5"></path><path d="M1880.88 94.01L1895.01 191.16" stroke="#132e65" stroke-width="1.5"></path><path d="M1880.88 94.01L2034.11 41.35" stroke="#132e65" stroke-width="1.5"></path><path d="M1895.01 191.16L1895.01 191.16" stroke="#132e65" stroke-width="1.5"></path><path d="M1895.01 191.16L1990.44 261.72" stroke="#132e65" stroke-width="1.5"></path><path d="M1895.01 191.16L1858.47 361.72" stroke="#132e65" stroke-width="1.5"></path><path d="M1895.01 191.16L2034.11 41.35" stroke="#132e65" stroke-width="1.5"></path><path d="M1895.01 191.16L1688.43 105.16" stroke="#132e65" stroke-width="1.5"></path><path d="M1858.47 361.72L1858.47 361.72" stroke="#132e65" stroke-width="1.5"></path><path d="M1858.47 361.72L1870.34 517.32" stroke="#132e65" stroke-width="1.5"></path><path d="M1858.47 361.72L1990.44 261.72" stroke="#132e65" stroke-width="1.5"></path><path d="M1870.34 517.32L1870.34 517.32" stroke="#132e65" stroke-width="1.5"></path><path d="M1870.34 517.32L1868.43 678.93" stroke="#132e65" stroke-width="1.5"></path><path d="M1870.34 517.32L1990.44 261.72" stroke="#132e65" stroke-width="1.5"></path><path d="M1868.43 678.93L1868.43 678.93" stroke="#132e65" stroke-width="1.5"></path><path d="M2000.76 -58.22L2000.76 -58.22" stroke="#132e65" stroke-width="1.5"></path><path d="M2000.76 -58.22L2034.11 41.35" stroke="#132e65" stroke-width="1.5"></path><path d="M2000.76 -58.22L1880.88 94.01" stroke="#132e65" stroke-width="1.5"></path><path d="M2034.11 41.35L2034.11 41.35" stroke="#132e65" stroke-width="1.5"></path><path d="M2034.11 41.35L1854.16 -67.76" stroke="#132e65" stroke-width="1.5"></path><path d="M2034.11 41.35L1990.44 261.72" stroke="#132e65" stroke-width="1.5"></path><path d="M2034.11 41.35L1762.45 -96.11" stroke="#132e65" stroke-width="1.5"></path><path d="M1990.44 261.72L1990.44 261.72" stroke="#132e65" stroke-width="1.5"></path><circle r="5" cx="-86.48" cy="373.47" fill="#132e65"></circle><circle r="5" cx="-49.75" cy="493.88" fill="#132e65"></circle><circle r="5" cx="-40.28" cy="671.24" fill="#132e65"></circle><circle r="5" cx="60.89" cy="399.37" fill="#132e65"></circle><circle r="5" cx="106.32" cy="487.94" fill="#132e65"></circle><circle r="5" cx="99.2" cy="650.57" fill="#132e65"></circle><circle r="5" cx="220.71" cy="342.35" fill="#132e65"></circle><circle r="5" cx="245.86" cy="520.69" fill="#132e65"></circle><circle r="5" cx="261.55" cy="694.26" fill="#132e65"></circle><circle r="5" cx="366.09" cy="398.22" fill="#132e65"></circle><circle r="5" cx="408.61" cy="561.45" fill="#132e65"></circle><circle r="5" cx="386.36" cy="648.66" fill="#132e65"></circle><circle r="5" cx="551.91" cy="407.11" fill="#132e65"></circle><circle r="5" cx="532.7" cy="489.82" fill="#132e65"></circle><circle r="5" cx="553.74" cy="656.07" fill="#132e65"></circle><circle r="5" cx="670.48" cy="253.85" fill="#132e65"></circle><circle r="5" cx="671.33" cy="398.63" fill="#132e65"></circle><circle r="5" cx="703.1" cy="546.64" fill="#132e65"></circle><circle r="5" cx="710.44" cy="689.82" fill="#132e65"></circle><circle r="5" cx="836.07" cy="239.68" fill="#132e65"></circle><circle r="5" cx="838.26" cy="401.51" fill="#132e65"></circle><circle r="5" cx="815.13" cy="521.28" fill="#132e65"></circle><circle r="5" cx="788.9" cy="682.9" fill="#132e65"></circle><circle r="5" cx="965.92" cy="236" fill="#132e65"></circle><circle r="5" cx="951.05" cy="382.87" fill="#132e65"></circle><circle r="5" cx="978.13" cy="515.76" fill="#132e65"></circle><circle r="5" cx="991.24" cy="673.22" fill="#132e65"></circle><circle r="5" cx="1157.33" cy="54.51" fill="#132e65"></circle><circle r="5" cx="1087.59" cy="260.95" fill="#132e65"></circle><circle r="5" cx="1092.06" cy="346.55" fill="#132e65"></circle><circle r="5" cx="1129.35" cy="562.37" fill="#132e65"></circle><circle r="5" cx="1135.71" cy="651.09" fill="#132e65"></circle><circle r="5" cx="1280.14" cy="-103.75" fill="#132e65"></circle><circle r="5" cx="1312.22" cy="82.33" fill="#132e65"></circle><circle r="5" cx="1303.67" cy="205.06" fill="#132e65"></circle><circle r="5" cx="1255.65" cy="351.46" fill="#132e65"></circle><circle r="5" cx="1239.16" cy="508.03" fill="#132e65"></circle><circle r="5" cx="1266.4" cy="652.45" fill="#132e65"></circle><circle r="5" cx="1456.14" cy="-71.33" fill="#132e65"></circle><circle r="5" cx="1404.25" cy="98.25" fill="#132e65"></circle><circle r="5" cx="1402.87" cy="195.05" fill="#132e65"></circle><circle r="5" cx="1424.98" cy="337.67" fill="#132e65"></circle><circle r="5" cx="1451.88" cy="491.87" fill="#132e65"></circle><circle r="5" cx="1447.94" cy="656.04" fill="#132e65"></circle><circle r="5" cx="1603.38" cy="-88.57" fill="#132e65"></circle><circle r="5" cx="1538.16" cy="62.49" fill="#132e65"></circle><circle r="5" cx="1576.39" cy="197.22" fill="#132e65"></circle><circle r="5" cx="1561.89" cy="367.69" fill="#132e65"></circle><circle r="5" cx="1568.42" cy="545.05" fill="#132e65"></circle><circle r="5" cx="1593.89" cy="676.21" fill="#132e65"></circle><circle r="5" cx="1762.45" cy="-96.11" fill="#132e65"></circle><circle r="5" cx="1688.43" cy="105.16" fill="#132e65"></circle><circle r="5" cx="1747.64" cy="230.77" fill="#132e65"></circle><circle r="5" cx="1752.44" cy="364.69" fill="#132e65"></circle><circle r="5" cx="1698.99" cy="550.65" fill="#132e65"></circle><circle r="5" cx="1733.22" cy="665.78" fill="#132e65"></circle><circle r="5" cx="1854.16" cy="-67.76" fill="#132e65"></circle><circle r="5" cx="1880.88" cy="94.01" fill="#132e65"></circle><circle r="5" cx="1895.01" cy="191.16" fill="#132e65"></circle><circle r="5" cx="1858.47" cy="361.72" fill="#132e65"></circle><circle r="5" cx="1870.34" cy="517.32" fill="#132e65"></circle><circle r="5" cx="1868.43" cy="678.93" fill="#132e65"></circle><circle r="5" cx="2000.76" cy="-58.22" fill="#132e65"></circle><circle r="5" cx="2034.11" cy="41.35" fill="#132e65"></circle><circle r="5" cx="1990.44" cy="261.72" fill="#132e65"></circle><path d="M249.69 388.85L249.69 388.85" stroke="hsl(228.5, 77.2%, 51.5%)" stroke-width="1.5"></path><path d="M249.69 388.85L365.62 501.99" stroke="hsl(228.5, 77.2%, 51.5%)" stroke-width="1.5"></path><path d="M249.69 388.85L249.56 557.79" stroke="hsl(228.5, 77.2%, 51.5%)" stroke-width="1.5"></path><path d="M249.69 388.85L40.67 403.03" stroke="hsl(228.5, 77.2%, 51.5%)" stroke-width="1.5"></path><path d="M249.69 388.85L59.81 525.22" stroke="hsl(228.5, 77.2%, 51.5%)" stroke-width="1.5"></path><path d="M938.35 534.52L938.35 534.52" stroke="hsl(228.5, 77.2%, 51.5%)" stroke-width="1.5"></path><path d="M938.35 534.52L851.91 542.8" stroke="hsl(228.5, 77.2%, 51.5%)" stroke-width="1.5"></path><path d="M1008.7 684.85L1008.7 684.85" stroke="hsl(228.5, 77.2%, 51.5%)" stroke-width="1.5"></path><path d="M1008.7 684.85L1103.88 698.03" stroke="hsl(228.5, 77.2%, 51.5%)" stroke-width="1.5"></path><path d="M1008.7 684.85L938.35 534.52" stroke="hsl(228.5, 77.2%, 51.5%)" stroke-width="1.5"></path><path d="M1008.7 684.85L1088.86 531.87" stroke="hsl(228.5, 77.2%, 51.5%)" stroke-width="1.5"></path><path d="M1424.44 675L1424.44 675" stroke="hsl(228.5, 77.2%, 51.5%)" stroke-width="1.5"></path><path d="M1424.44 675L1311.71 648.42" stroke="hsl(228.5, 77.2%, 51.5%)" stroke-width="1.5"></path><path d="M1424.44 675L1594.09 706.04" stroke="hsl(228.5, 77.2%, 51.5%)" stroke-width="1.5"></path><path d="M1424.44 675L1562.79 488.51" stroke="hsl(228.5, 77.2%, 51.5%)" stroke-width="1.5"></path><path d="M1424.44 675L1263.95 491.74" stroke="hsl(228.5, 77.2%, 51.5%)" stroke-width="1.5"></path><path d="M1562.79 488.51L1562.79 488.51" stroke="hsl(228.5, 77.2%, 51.5%)" stroke-width="1.5"></path><path d="M1562.79 488.51L1552.65 374.98" stroke="hsl(228.5, 77.2%, 51.5%)" stroke-width="1.5"></path><path d="M1594.09 706.04L1594.09 706.04" stroke="hsl(228.5, 77.2%, 51.5%)" stroke-width="1.5"></path><path d="M1594.09 706.04L1761.12 682.16" stroke="hsl(228.5, 77.2%, 51.5%)" stroke-width="1.5"></path><path d="M1739.21 403.4L1739.21 403.4" stroke="hsl(228.5, 77.2%, 51.5%)" stroke-width="1.5"></path><path d="M1739.21 403.4L1688.73 529.57" stroke="hsl(228.5, 77.2%, 51.5%)" stroke-width="1.5"></path><path d="M1739.21 403.4L1848.04 544.14" stroke="hsl(228.5, 77.2%, 51.5%)" stroke-width="1.5"></path><path d="M1739.21 403.4L1552.65 374.98" stroke="hsl(228.5, 77.2%, 51.5%)" stroke-width="1.5"></path><path d="M2026.9 252.79L2026.9 252.79" stroke="hsl(228.5, 77.2%, 51.5%)" stroke-width="1.5"></path><path d="M2026.9 252.79L1902.52 229.17" stroke="hsl(228.5, 77.2%, 51.5%)" stroke-width="1.5"></path><path d="M2026.9 252.79L2014.8 403.53" stroke="hsl(228.5, 77.2%, 51.5%)" stroke-width="1.5"></path><path d="M2026.9 252.79L2018.07 101.51" stroke="hsl(228.5, 77.2%, 51.5%)" stroke-width="1.5"></path><path d="M-78.67 522.67L-78.67 522.67" stroke="hsl(228.5, 77.2%, 51.5%)" stroke-width="1.5"></path><path d="M-78.67 522.67L59.81 525.22" stroke="hsl(228.5, 77.2%, 51.5%)" stroke-width="1.5"></path><path d="M-78.67 522.67L40.67 403.03" stroke="hsl(228.5, 77.2%, 51.5%)" stroke-width="1.5"></path><path d="M-78.67 522.67L-104.22 707.57" stroke="hsl(228.5, 77.2%, 51.5%)" stroke-width="1.5"></path><path d="M-78.67 522.67L78.79 668.84" stroke="hsl(228.5, 77.2%, 51.5%)" stroke-width="1.5"></path><path d="M-78.67 522.67L197.35 676.07" stroke="hsl(228.5, 77.2%, 51.5%)" stroke-width="1.5"></path><path d="M-78.67 522.67L249.56 557.79" stroke="hsl(228.5, 77.2%, 51.5%)" stroke-width="1.5"></path><path d="M-104.22 707.57L-104.22 707.57" stroke="hsl(228.5, 77.2%, 51.5%)" stroke-width="1.5"></path><path d="M-104.22 707.57L78.79 668.84" stroke="hsl(228.5, 77.2%, 51.5%)" stroke-width="1.5"></path><path d="M-104.22 707.57L59.81 525.22" stroke="hsl(228.5, 77.2%, 51.5%)" stroke-width="1.5"></path><path d="M40.67 403.03L40.67 403.03" stroke="hsl(228.5, 77.2%, 51.5%)" stroke-width="1.5"></path><path d="M40.67 403.03L59.81 525.22" stroke="hsl(228.5, 77.2%, 51.5%)" stroke-width="1.5"></path><path d="M59.81 525.22L59.81 525.22" stroke="hsl(228.5, 77.2%, 51.5%)" stroke-width="1.5"></path><path d="M59.81 525.22L78.79 668.84" stroke="hsl(228.5, 77.2%, 51.5%)" stroke-width="1.5"></path><path d="M59.81 525.22L249.56 557.79" stroke="hsl(228.5, 77.2%, 51.5%)" stroke-width="1.5"></path><path d="M59.81 525.22L197.35 676.07" stroke="hsl(228.5, 77.2%, 51.5%)" stroke-width="1.5"></path><path d="M78.79 668.84L78.79 668.84" stroke="hsl(228.5, 77.2%, 51.5%)" stroke-width="1.5"></path><path d="M78.79 668.84L197.35 676.07" stroke="hsl(228.5, 77.2%, 51.5%)" stroke-width="1.5"></path><path d="M78.79 668.84L249.56 557.79" stroke="hsl(228.5, 77.2%, 51.5%)" stroke-width="1.5"></path><path d="M249.56 557.79L249.56 557.79" stroke="hsl(228.5, 77.2%, 51.5%)" stroke-width="1.5"></path><path d="M249.56 557.79L365.62 501.99" stroke="hsl(228.5, 77.2%, 51.5%)" stroke-width="1.5"></path><path d="M249.56 557.79L197.35 676.07" stroke="hsl(228.5, 77.2%, 51.5%)" stroke-width="1.5"></path><path d="M249.56 557.79L365.58 667.49" stroke="hsl(228.5, 77.2%, 51.5%)" stroke-width="1.5"></path><path d="M197.35 676.07L197.35 676.07" stroke="hsl(228.5, 77.2%, 51.5%)" stroke-width="1.5"></path><path d="M197.35 676.07L365.58 667.49" stroke="hsl(228.5, 77.2%, 51.5%)" stroke-width="1.5"></path><path d="M365.62 501.99L365.62 501.99" stroke="hsl(228.5, 77.2%, 51.5%)" stroke-width="1.5"></path><path d="M365.58 667.49L365.58 667.49" stroke="hsl(228.5, 77.2%, 51.5%)" stroke-width="1.5"></path><path d="M365.58 667.49L524.41 655.26" stroke="hsl(228.5, 77.2%, 51.5%)" stroke-width="1.5"></path><path d="M365.58 667.49L365.62 501.99" stroke="hsl(228.5, 77.2%, 51.5%)" stroke-width="1.5"></path><path d="M519.54 488.35L519.54 488.35" stroke="hsl(228.5, 77.2%, 51.5%)" stroke-width="1.5"></path><path d="M519.54 488.35L365.62 501.99" stroke="hsl(228.5, 77.2%, 51.5%)" stroke-width="1.5"></path><path d="M519.54 488.35L673.47 525.17" stroke="hsl(228.5, 77.2%, 51.5%)" stroke-width="1.5"></path><path d="M519.54 488.35L524.41 655.26" stroke="hsl(228.5, 77.2%, 51.5%)" stroke-width="1.5"></path><path d="M519.54 488.35L648.11 359.53" stroke="hsl(228.5, 77.2%, 51.5%)" stroke-width="1.5"></path><path d="M519.54 488.35L365.58 667.49" stroke="hsl(228.5, 77.2%, 51.5%)" stroke-width="1.5"></path><path d="M519.54 488.35L249.56 557.79" stroke="hsl(228.5, 77.2%, 51.5%)" stroke-width="1.5"></path><path d="M524.41 655.26L524.41 655.26" stroke="hsl(228.5, 77.2%, 51.5%)" stroke-width="1.5"></path><path d="M648.11 359.53L648.11 359.53" stroke="hsl(228.5, 77.2%, 51.5%)" stroke-width="1.5"></path><path d="M648.11 359.53L796.62 337.69" stroke="hsl(228.5, 77.2%, 51.5%)" stroke-width="1.5"></path><path d="M648.11 359.53L673.47 525.17" stroke="hsl(228.5, 77.2%, 51.5%)" stroke-width="1.5"></path><path d="M673.47 525.17L673.47 525.17" stroke="hsl(228.5, 77.2%, 51.5%)" stroke-width="1.5"></path><path d="M796.62 337.69L796.62 337.69" stroke="hsl(228.5, 77.2%, 51.5%)" stroke-width="1.5"></path><path d="M796.62 337.69L963.7 376.55" stroke="hsl(228.5, 77.2%, 51.5%)" stroke-width="1.5"></path><path d="M796.62 337.69L851.91 542.8" stroke="hsl(228.5, 77.2%, 51.5%)" stroke-width="1.5"></path><path d="M796.62 337.69L673.47 525.17" stroke="hsl(228.5, 77.2%, 51.5%)" stroke-width="1.5"></path><path d="M796.62 337.69L938.35 534.52" stroke="hsl(228.5, 77.2%, 51.5%)" stroke-width="1.5"></path><path d="M851.91 542.8L851.91 542.8" stroke="hsl(228.5, 77.2%, 51.5%)" stroke-width="1.5"></path><path d="M851.91 542.8L822.71 679.04" stroke="hsl(228.5, 77.2%, 51.5%)" stroke-width="1.5"></path><path d="M851.91 542.8L673.47 525.17" stroke="hsl(228.5, 77.2%, 51.5%)" stroke-width="1.5"></path><path d="M851.91 542.8L963.7 376.55" stroke="hsl(228.5, 77.2%, 51.5%)" stroke-width="1.5"></path><path d="M822.71 679.04L822.71 679.04" stroke="hsl(228.5, 77.2%, 51.5%)" stroke-width="1.5"></path><path d="M822.71 679.04L938.35 534.52" stroke="hsl(228.5, 77.2%, 51.5%)" stroke-width="1.5"></path><path d="M963.7 376.55L963.7 376.55" stroke="hsl(228.5, 77.2%, 51.5%)" stroke-width="1.5"></path><path d="M963.7 376.55L1090.42 390.97" stroke="hsl(228.5, 77.2%, 51.5%)" stroke-width="1.5"></path><path d="M963.7 376.55L938.35 534.52" stroke="hsl(228.5, 77.2%, 51.5%)" stroke-width="1.5"></path><path d="M963.7 376.55L1088.86 531.87" stroke="hsl(228.5, 77.2%, 51.5%)" stroke-width="1.5"></path><path d="M1090.42 390.97L1090.42 390.97" stroke="hsl(228.5, 77.2%, 51.5%)" stroke-width="1.5"></path><path d="M1090.42 390.97L1088.86 531.87" stroke="hsl(228.5, 77.2%, 51.5%)" stroke-width="1.5"></path><path d="M1090.42 390.97L1263.95 491.74" stroke="hsl(228.5, 77.2%, 51.5%)" stroke-width="1.5"></path><path d="M1090.42 390.97L938.35 534.52" stroke="hsl(228.5, 77.2%, 51.5%)" stroke-width="1.5"></path><path d="M1088.86 531.87L1088.86 531.87" stroke="hsl(228.5, 77.2%, 51.5%)" stroke-width="1.5"></path><path d="M1088.86 531.87L938.35 534.52" stroke="hsl(228.5, 77.2%, 51.5%)" stroke-width="1.5"></path><path d="M1088.86 531.87L1103.88 698.03" stroke="hsl(228.5, 77.2%, 51.5%)" stroke-width="1.5"></path><path d="M1103.88 698.03L1103.88 698.03" stroke="hsl(228.5, 77.2%, 51.5%)" stroke-width="1.5"></path><path d="M1103.88 698.03L1311.71 648.42" stroke="hsl(228.5, 77.2%, 51.5%)" stroke-width="1.5"></path><path d="M1103.88 698.03L938.35 534.52" stroke="hsl(228.5, 77.2%, 51.5%)" stroke-width="1.5"></path><path d="M1103.88 698.03L1263.95 491.74" stroke="hsl(228.5, 77.2%, 51.5%)" stroke-width="1.5"></path><path d="M1103.88 698.03L822.71 679.04" stroke="hsl(228.5, 77.2%, 51.5%)" stroke-width="1.5"></path><path d="M1304.41 203.25L1304.41 203.25" stroke="hsl(228.5, 77.2%, 51.5%)" stroke-width="1.5"></path><path d="M1304.41 203.25L1448.61 235.53" stroke="hsl(228.5, 77.2%, 51.5%)" stroke-width="1.5"></path><path d="M1304.41 203.25L1302.51 392.69" stroke="hsl(228.5, 77.2%, 51.5%)" stroke-width="1.5"></path><path d="M1304.41 203.25L1429.23 367.56" stroke="hsl(228.5, 77.2%, 51.5%)" stroke-width="1.5"></path><path d="M1304.41 203.25L1570.68 244.04" stroke="hsl(228.5, 77.2%, 51.5%)" stroke-width="1.5"></path><path d="M1304.41 203.25L1090.42 390.97" stroke="hsl(228.5, 77.2%, 51.5%)" stroke-width="1.5"></path><path d="M1304.41 203.25L1263.95 491.74" stroke="hsl(228.5, 77.2%, 51.5%)" stroke-width="1.5"></path><path d="M1302.51 392.69L1302.51 392.69" stroke="hsl(228.5, 77.2%, 51.5%)" stroke-width="1.5"></path><path d="M1302.51 392.69L1263.95 491.74" stroke="hsl(228.5, 77.2%, 51.5%)" stroke-width="1.5"></path><path d="M1302.51 392.69L1429.23 367.56" stroke="hsl(228.5, 77.2%, 51.5%)" stroke-width="1.5"></path><path d="M1302.51 392.69L1090.42 390.97" stroke="hsl(228.5, 77.2%, 51.5%)" stroke-width="1.5"></path><path d="M1302.51 392.69L1448.61 235.53" stroke="hsl(228.5, 77.2%, 51.5%)" stroke-width="1.5"></path><path d="M1302.51 392.69L1552.65 374.98" stroke="hsl(228.5, 77.2%, 51.5%)" stroke-width="1.5"></path><path d="M1263.95 491.74L1263.95 491.74" stroke="hsl(228.5, 77.2%, 51.5%)" stroke-width="1.5"></path><path d="M1263.95 491.74L1311.71 648.42" stroke="hsl(228.5, 77.2%, 51.5%)" stroke-width="1.5"></path><path d="M1311.71 648.42L1311.71 648.42" stroke="hsl(228.5, 77.2%, 51.5%)" stroke-width="1.5"></path><path d="M1311.71 648.42L1088.86 531.87" stroke="hsl(228.5, 77.2%, 51.5%)" stroke-width="1.5"></path><path d="M1311.71 648.42L1302.51 392.69" stroke="hsl(228.5, 77.2%, 51.5%)" stroke-width="1.5"></path><path d="M1311.71 648.42L1594.09 706.04" stroke="hsl(228.5, 77.2%, 51.5%)" stroke-width="1.5"></path><path d="M1448.61 235.53L1448.61 235.53" stroke="hsl(228.5, 77.2%, 51.5%)" stroke-width="1.5"></path><path d="M1448.61 235.53L1570.68 244.04" stroke="hsl(228.5, 77.2%, 51.5%)" stroke-width="1.5"></path><path d="M1448.61 235.53L1429.23 367.56" stroke="hsl(228.5, 77.2%, 51.5%)" stroke-width="1.5"></path><path d="M1448.61 235.53L1552.65 374.98" stroke="hsl(228.5, 77.2%, 51.5%)" stroke-width="1.5"></path><path d="M1429.23 367.56L1429.23 367.56" stroke="hsl(228.5, 77.2%, 51.5%)" stroke-width="1.5"></path><path d="M1429.23 367.56L1552.65 374.98" stroke="hsl(228.5, 77.2%, 51.5%)" stroke-width="1.5"></path><path d="M1429.23 367.56L1562.79 488.51" stroke="hsl(228.5, 77.2%, 51.5%)" stroke-width="1.5"></path><path d="M1551.35 -66.87L1551.35 -66.87" stroke="hsl(228.5, 77.2%, 51.5%)" stroke-width="1.5"></path><path d="M1551.35 -66.87L1577.99 48.3" stroke="hsl(228.5, 77.2%, 51.5%)" stroke-width="1.5"></path><path d="M1551.35 -66.87L1737.64 -92.1" stroke="hsl(228.5, 77.2%, 51.5%)" stroke-width="1.5"></path><path d="M1551.35 -66.87L1745.75 64.39" stroke="hsl(228.5, 77.2%, 51.5%)" stroke-width="1.5"></path><path d="M1551.35 -66.87L1570.68 244.04" stroke="hsl(228.5, 77.2%, 51.5%)" stroke-width="1.5"></path><path d="M1551.35 -66.87L1732.27 194.62" stroke="hsl(228.5, 77.2%, 51.5%)" stroke-width="1.5"></path><path d="M1551.35 -66.87L1448.61 235.53" stroke="hsl(228.5, 77.2%, 51.5%)" stroke-width="1.5"></path><path d="M1577.99 48.3L1577.99 48.3" stroke="hsl(228.5, 77.2%, 51.5%)" stroke-width="1.5"></path><path d="M1577.99 48.3L1745.75 64.39" stroke="hsl(228.5, 77.2%, 51.5%)" stroke-width="1.5"></path><path d="M1570.68 244.04L1570.68 244.04" stroke="hsl(228.5, 77.2%, 51.5%)" stroke-width="1.5"></path><path d="M1570.68 244.04L1552.65 374.98" stroke="hsl(228.5, 77.2%, 51.5%)" stroke-width="1.5"></path><path d="M1570.68 244.04L1732.27 194.62" stroke="hsl(228.5, 77.2%, 51.5%)" stroke-width="1.5"></path><path d="M1570.68 244.04L1429.23 367.56" stroke="hsl(228.5, 77.2%, 51.5%)" stroke-width="1.5"></path><path d="M1570.68 244.04L1577.99 48.3" stroke="hsl(228.5, 77.2%, 51.5%)" stroke-width="1.5"></path><path d="M1570.68 244.04L1739.21 403.4" stroke="hsl(228.5, 77.2%, 51.5%)" stroke-width="1.5"></path><path d="M1552.65 374.98L1552.65 374.98" stroke="hsl(228.5, 77.2%, 51.5%)" stroke-width="1.5"></path><path d="M1737.64 -92.1L1737.64 -92.1" stroke="hsl(228.5, 77.2%, 51.5%)" stroke-width="1.5"></path><path d="M1737.64 -92.1L1887.87 -58.7" stroke="hsl(228.5, 77.2%, 51.5%)" stroke-width="1.5"></path><path d="M1737.64 -92.1L1745.75 64.39" stroke="hsl(228.5, 77.2%, 51.5%)" stroke-width="1.5"></path><path d="M1737.64 -92.1L1577.99 48.3" stroke="hsl(228.5, 77.2%, 51.5%)" stroke-width="1.5"></path><path d="M1737.64 -92.1L1903.6 66.96" stroke="hsl(228.5, 77.2%, 51.5%)" stroke-width="1.5"></path><path d="M1737.64 -92.1L1732.27 194.62" stroke="hsl(228.5, 77.2%, 51.5%)" stroke-width="1.5"></path><path d="M1745.75 64.39L1745.75 64.39" stroke="hsl(228.5, 77.2%, 51.5%)" stroke-width="1.5"></path><path d="M1745.75 64.39L1732.27 194.62" stroke="hsl(228.5, 77.2%, 51.5%)" stroke-width="1.5"></path><path d="M1745.75 64.39L1903.6 66.96" stroke="hsl(228.5, 77.2%, 51.5%)" stroke-width="1.5"></path><path d="M1745.75 64.39L1887.87 -58.7" stroke="hsl(228.5, 77.2%, 51.5%)" stroke-width="1.5"></path><path d="M1745.75 64.39L1902.52 229.17" stroke="hsl(228.5, 77.2%, 51.5%)" stroke-width="1.5"></path><path d="M1732.27 194.62L1732.27 194.62" stroke="hsl(228.5, 77.2%, 51.5%)" stroke-width="1.5"></path><path d="M1732.27 194.62L1902.52 229.17" stroke="hsl(228.5, 77.2%, 51.5%)" stroke-width="1.5"></path><path d="M1732.27 194.62L1739.21 403.4" stroke="hsl(228.5, 77.2%, 51.5%)" stroke-width="1.5"></path><path d="M1732.27 194.62L1577.99 48.3" stroke="hsl(228.5, 77.2%, 51.5%)" stroke-width="1.5"></path><path d="M1732.27 194.62L1903.6 66.96" stroke="hsl(228.5, 77.2%, 51.5%)" stroke-width="1.5"></path><path d="M1688.73 529.57L1688.73 529.57" stroke="hsl(228.5, 77.2%, 51.5%)" stroke-width="1.5"></path><path d="M1688.73 529.57L1562.79 488.51" stroke="hsl(228.5, 77.2%, 51.5%)" stroke-width="1.5"></path><path d="M1688.73 529.57L1848.04 544.14" stroke="hsl(228.5, 77.2%, 51.5%)" stroke-width="1.5"></path><path d="M1761.12 682.16L1761.12 682.16" stroke="hsl(228.5, 77.2%, 51.5%)" stroke-width="1.5"></path><path d="M1761.12 682.16L1871.79 705.74" stroke="hsl(228.5, 77.2%, 51.5%)" stroke-width="1.5"></path><path d="M1761.12 682.16L1848.04 544.14" stroke="hsl(228.5, 77.2%, 51.5%)" stroke-width="1.5"></path><path d="M1887.87 -58.7L1887.87 -58.7" stroke="hsl(228.5, 77.2%, 51.5%)" stroke-width="1.5"></path><path d="M1887.87 -58.7L1903.6 66.96" stroke="hsl(228.5, 77.2%, 51.5%)" stroke-width="1.5"></path><path d="M1887.87 -58.7L2018.07 101.51" stroke="hsl(228.5, 77.2%, 51.5%)" stroke-width="1.5"></path><path d="M1887.87 -58.7L1902.52 229.17" stroke="hsl(228.5, 77.2%, 51.5%)" stroke-width="1.5"></path><path d="M1887.87 -58.7L1732.27 194.62" stroke="hsl(228.5, 77.2%, 51.5%)" stroke-width="1.5"></path><path d="M1903.6 66.96L1903.6 66.96" stroke="hsl(228.5, 77.2%, 51.5%)" stroke-width="1.5"></path><path d="M1903.6 66.96L2018.07 101.51" stroke="hsl(228.5, 77.2%, 51.5%)" stroke-width="1.5"></path><path d="M1903.6 66.96L1902.52 229.17" stroke="hsl(228.5, 77.2%, 51.5%)" stroke-width="1.5"></path><path d="M1902.52 229.17L1902.52 229.17" stroke="hsl(228.5, 77.2%, 51.5%)" stroke-width="1.5"></path><path d="M1902.52 229.17L2018.07 101.51" stroke="hsl(228.5, 77.2%, 51.5%)" stroke-width="1.5"></path><path d="M1848.04 544.14L1848.04 544.14" stroke="hsl(228.5, 77.2%, 51.5%)" stroke-width="1.5"></path><path d="M1871.79 705.74L1871.79 705.74" stroke="hsl(228.5, 77.2%, 51.5%)" stroke-width="1.5"></path><path d="M1871.79 705.74L1848.04 544.14" stroke="hsl(228.5, 77.2%, 51.5%)" stroke-width="1.5"></path><path d="M1871.79 705.74L2047.34 700.94" stroke="hsl(228.5, 77.2%, 51.5%)" stroke-width="1.5"></path><path d="M1871.79 705.74L2009 531.39" stroke="hsl(228.5, 77.2%, 51.5%)" stroke-width="1.5"></path><path d="M2018.07 101.51L2018.07 101.51" stroke="hsl(228.5, 77.2%, 51.5%)" stroke-width="1.5"></path><path d="M2018.07 101.51L1745.75 64.39" stroke="hsl(228.5, 77.2%, 51.5%)" stroke-width="1.5"></path><path d="M2014.8 403.53L2014.8 403.53" stroke="hsl(228.5, 77.2%, 51.5%)" stroke-width="1.5"></path><path d="M2014.8 403.53L2009 531.39" stroke="hsl(228.5, 77.2%, 51.5%)" stroke-width="1.5"></path><path d="M2009 531.39L2009 531.39" stroke="hsl(228.5, 77.2%, 51.5%)" stroke-width="1.5"></path><path d="M2009 531.39L1848.04 544.14" stroke="hsl(228.5, 77.2%, 51.5%)" stroke-width="1.5"></path><path d="M2009 531.39L2047.34 700.94" stroke="hsl(228.5, 77.2%, 51.5%)" stroke-width="1.5"></path><path d="M2047.34 700.94L2047.34 700.94" stroke="hsl(228.5, 77.2%, 51.5%)" stroke-width="1.5"></path><path d="M2047.34 700.94L1848.04 544.14" stroke="hsl(228.5, 77.2%, 51.5%)" stroke-width="1.5"></path><path d="M2047.34 700.94L1761.12 682.16" stroke="hsl(228.5, 77.2%, 51.5%)" stroke-width="1.5"></path><path d="M2047.34 700.94L2014.8 403.53" stroke="hsl(228.5, 77.2%, 51.5%)" stroke-width="1.5"></path><path d="M2047.34 700.94L1688.73 529.57" stroke="hsl(228.5, 77.2%, 51.5%)" stroke-width="1.5"></path><circle r="25" cx="249.69" cy="388.85" fill="url(#SvgjsRadialGradient1015)"></circle><circle r="25" cx="938.35" cy="534.52" fill="url(#SvgjsRadialGradient1015)"></circle><circle r="25" cx="1008.7" cy="684.85" fill="url(#SvgjsRadialGradient1015)"></circle><circle r="25" cx="1424.44" cy="675" fill="url(#SvgjsRadialGradient1015)"></circle><circle r="25" cx="1562.79" cy="488.51" fill="url(#SvgjsRadialGradient1015)"></circle><circle r="25" cx="1594.09" cy="706.04" fill="url(#SvgjsRadialGradient1015)"></circle><circle r="25" cx="1739.21" cy="403.4" fill="url(#SvgjsRadialGradient1015)"></circle><circle r="25" cx="2026.9" cy="252.79" fill="url(#SvgjsRadialGradient1015)"></circle><circle r="5" cx="-78.67" cy="522.67" fill="#8b9ad9"></circle><circle r="5" cx="-104.22" cy="707.57" fill="#8b9ad9"></circle><circle r="5" cx="40.67" cy="403.03" fill="#8b9ad9"></circle><circle r="5" cx="59.81" cy="525.22" fill="#8b9ad9"></circle><circle r="5" cx="78.79" cy="668.84" fill="#8b9ad9"></circle><circle r="5" cx="249.56" cy="557.79" fill="#8b9ad9"></circle><circle r="5" cx="197.35" cy="676.07" fill="#8b9ad9"></circle><circle r="5" cx="365.62" cy="501.99" fill="#8b9ad9"></circle><circle r="5" cx="365.58" cy="667.49" fill="#8b9ad9"></circle><circle r="5" cx="519.54" cy="488.35" fill="#8b9ad9"></circle><circle r="5" cx="524.41" cy="655.26" fill="#8b9ad9"></circle><circle r="5" cx="648.11" cy="359.53" fill="#8b9ad9"></circle><circle r="5" cx="673.47" cy="525.17" fill="#8b9ad9"></circle><circle r="5" cx="796.62" cy="337.69" fill="#8b9ad9"></circle><circle r="5" cx="851.91" cy="542.8" fill="#8b9ad9"></circle><circle r="5" cx="822.71" cy="679.04" fill="#8b9ad9"></circle><circle r="5" cx="963.7" cy="376.55" fill="#8b9ad9"></circle><circle r="5" cx="1090.42" cy="390.97" fill="#8b9ad9"></circle><circle r="5" cx="1088.86" cy="531.87" fill="#8b9ad9"></circle><circle r="5" cx="1103.88" cy="698.03" fill="#8b9ad9"></circle><circle r="5" cx="1304.41" cy="203.25" fill="#8b9ad9"></circle><circle r="5" cx="1302.51" cy="392.69" fill="#8b9ad9"></circle><circle r="5" cx="1263.95" cy="491.74" fill="#8b9ad9"></circle><circle r="5" cx="1311.71" cy="648.42" fill="#8b9ad9"></circle><circle r="5" cx="1448.61" cy="235.53" fill="#8b9ad9"></circle><circle r="5" cx="1429.23" cy="367.56" fill="#8b9ad9"></circle><circle r="5" cx="1551.35" cy="-66.87" fill="#8b9ad9"></circle><circle r="5" cx="1577.99" cy="48.3" fill="#8b9ad9"></circle><circle r="5" cx="1570.68" cy="244.04" fill="#8b9ad9"></circle><circle r="5" cx="1552.65" cy="374.98" fill="#8b9ad9"></circle><circle r="5" cx="1737.64" cy="-92.1" fill="#8b9ad9"></circle><circle r="5" cx="1745.75" cy="64.39" fill="#8b9ad9"></circle><circle r="5" cx="1732.27" cy="194.62" fill="#8b9ad9"></circle><circle r="5" cx="1688.73" cy="529.57" fill="#8b9ad9"></circle><circle r="5" cx="1761.12" cy="682.16" fill="#8b9ad9"></circle><circle r="5" cx="1887.87" cy="-58.7" fill="#8b9ad9"></circle><circle r="5" cx="1903.6" cy="66.96" fill="#8b9ad9"></circle><circle r="5" cx="1902.52" cy="229.17" fill="#8b9ad9"></circle><circle r="5" cx="1848.04" cy="544.14" fill="#8b9ad9"></circle><circle r="5" cx="1871.79" cy="705.74" fill="#8b9ad9"></circle><circle r="5" cx="2018.07" cy="101.51" fill="#8b9ad9"></circle><circle r="5" cx="2014.8" cy="403.53" fill="#8b9ad9"></circle><circle r="5" cx="2009" cy="531.39" fill="#8b9ad9"></circle><circle r="5" cx="2047.34" cy="700.94" fill="#8b9ad9"></circle></g><defs><mask id="SvgjsMask1014"><rect width="1920" height="481" fill="#ffffff"></rect></mask><radialGradient id="SvgjsRadialGradient1015"><stop stop-color="#ffffff" offset="0.1"></stop><stop stop-color="#1735b3" offset="0.2"></stop><stop stop-color="rgba(23, 53, 179, 0)" offset="1"></stop></radialGradient></defs></svg>